<svg data-v-0dd9719b="" version="1.0" xmlns="http://www.w3.org/2000/svg" xmlns:xlink="http://www.w3.org/1999/xlink" width="100%" height="100%" viewBox="0 0 340.000000 250.000000" preserveAspectRatio="xMidYMid meet" color-interpolation-filters="sRGB" style="margin: auto;"> <rect data-v-0dd9719b="" x="0" y="0" width="100%" height="100%" fill="#fff" fill-opacity="1" class="background"></rect> <!----> <g data-v-0dd9719b="" fill="#1A1A1A" class="icon-text-wrapper icon-svg-group iconsvg" transform="translate(47.38999938964844,88.13545227050781)"><g class="iconsvg-imagesvg" transform="translate(0,0)"><g><rect fill="#1A1A1A" fill-opacity="0" stroke-width="2" x="0" y="0" width="60" height="73.72909472959854" class="image-rect"></rect> <svg x="0" y="0" width="60" height="73.72909472959854" filtersec="colorsb8213085019" class="image-svg-svg primary" style="overflow: visible;"><svg xmlns="http://www.w3.org/2000/svg" viewBox="0 0 39.13999938964844 48.096214294433594"><title>a6</title><g data-name="图层 2"><g data-name="Layer 1"><path d="M19.57 0C8.86 0 2.81 4.21 1.4 12.81h11.68c.61-2.19 2.9-3.25 7-3.25 4.83 0 7.28 1.32 7.55 3.95 0 2.54-2.54 4-7.55 4.65C8.34 19.31.26 22.29 0 33.43 0 43.7 7.72 48.88 18.87 48c12.55-.88 20.27-6.58 20.27-19.39v-15.8C38.87 4.21 32.38 0 19.57 0zm-2.19 38.52c-3.69 0-5.62-1.76-5.88-5.44 0-3.42 2.37-5.61 7-6.49a50.6 50.6 0 0 0 9.3-2.81c-.83 1.62-2.6 4.7-4.31 5.42 0 0 3.2-.34 4.31-2v.18c-.26 1-1.32 4.35-3.65 5.25a14.06 14.06 0 0 0 3.3-1.43c-1.09 4.68-4.71 7.32-10.07 7.32z" fill="#1a1a1a"></path><path d="M24.35 27c-2.07.87-3.52.67-6.12 1.2-3.54.67-5.34 2.33-5.34 4.94.2 2.8 1.67 4.14 4.47 4.14 4.08 0 5.79-.81 8.1-4.23a14.75 14.75 0 0 1-4.32 1.12c1.77-.69 4.57-4.6 4.57-4.6-.84 1.26-4.52.51-4.52.51 1.31-.54 3.16-3.08 3.16-3.08z" fill="#286f6c"></path></g></g></svg></svg> <!----></g></g> <g transform="translate(67,18.17454719543457)"><g data-gra="path-name" fill-rule="" class="tp-name iconsvg-namesvg"><g transform="scale(1)"><g><path d="M14.66 0L14.66-6.02 11.47-6.02 12.98-10.47 25.5-10.47 27.02-6.02 23.87-6.02 23.87 0 37.85 0 37.85-6.02 34.4-6.02 24.08-35.08 14.45-35.08 4.08-6.02 0.68-6.02 0.68 0ZM19.27-28.8L23.77-15.55 14.71-15.55ZM39.63-36.96L39.63-31.68 43.04-31.68 43.04-5.34 39.63-5.34 39.63 0 53.61 0 53.61-5.34 50.16-5.34 50.16-17.28C51.15-19.58 52.72-21.62 55.24-21.62 58.59-21.62 60.21-19.27 60.21-14.24L60.21 0 70.73 0 70.73-5.34 67.33-5.34 67.33-16.02C67.33-23.4 63.66-27.38 57.38-27.38 54.24-27.38 51.88-26.02 50.16-24.14L50.16-36.96ZM72.93 0L86.7 0 86.7-5.34 83.46-5.34 83.46-17.28C84.24-19.53 85.55-21.62 87.7-21.62 90.63-21.62 92.04-19.48 92.04-14.45L92.04 0 102.41 0 102.41-5.34 99.16-5.34 99.16-16.18C99.16-16.54 99.16-16.96 99.11-17.33 99.95-19.58 101.26-21.62 103.4-21.62 106.34-21.62 107.7-19.48 107.7-14.45L107.7 0 118.22 0 118.22-5.34 114.82-5.34 114.82-16.18C114.82-23.66 111.41-27.38 105.6-27.38 102.04-27.38 99.53-25.34 97.91-22.67 96.44-25.81 93.72-27.38 89.95-27.38 87.07-27.38 85.08-26.13 83.46-24.29L83.46-26.91 72.93-26.91 72.93-21.62 76.34-21.62 76.34-5.34 72.93-5.34ZM119.69-13.56C119.69-4.55 125.34 0.42 133.46 0.42 138.32 0.42 141.73-1.1 144.5-3.46L142.83-9.06C140.58-7.23 138.27-5.76 134.97-5.76 130.79-5.76 128.22-7.8 127.33-11.15L145.76-11.15C145.81-11.94 145.86-13.51 145.86-14.19 145.86-21.88 141.88-27.33 133.3-27.33 125.5-27.33 119.69-22.36 119.69-13.56ZM127.12-15.39C127.7-19.21 130.16-21.57 133.51-21.57 137.85-21.57 139.9-18.53 139.9-15.39ZM148.69-13.56C148.69-4.55 153.61 0.42 160.37 0.42 163.56 0.42 166.34-0.73 168.38-2.88L168.38 0 178.9 0 178.9-5.34 175.5-5.34 175.5-36.96 164.92-36.96 164.92-31.68 168.38-31.68 168.38-23.98C166.44-26.23 163.66-27.33 160.37-27.33 153.61-27.33 148.69-22.36 148.69-13.56ZM156.02-13.4C156.02-18.22 158.74-20.99 162.51-20.99 165.39-20.99 167.59-19.32 168.38-16.44L168.38-10.21C167.59-7.33 165.29-5.71 162.51-5.71 158.74-5.71 156.02-8.59 156.02-13.4Z" transform="translate(-0.6800000071525574, 36.959999084472656)"></path></g> <!----> <!----> <!----> <!----> <!----> <!----> <!----></g></g> <!----></g></g><defs v-gra="od"></defs></svg>